<?xml version="1.0" encoding="utf-8"?>
<svg version="1.1" xmlns:xlink="http://www.w3.org/1999/xlink" width="12px" height="12px" viewBox="240 518.5  12 12" xmlns="http://www.w3.org/2000/svg">
  <path d="M 246 518.5  C 249.36 518.5  252 521.14  252 524.5  C 252 527.86  249.36 530.5  246 530.5  C 242.64 530.5  240 527.86  240 524.5  C 240 521.14  242.64 518.5  246 518.5  Z " fill-rule="nonzero" fill="#f0f0f0" stroke="none" />
  <path d="M 246 519  C 249.08 519  251.5 521.42  251.5 524.5  C 251.5 527.58  249.08 530  246 530  C 242.92 530  240.5 527.58  240.5 524.5  C 240.5 521.42  242.92 519  246 519  Z " stroke-width="1" stroke="#797979" fill="none" />
  <path d="M 246 527.5  C 244.32 527.5  243 526.18  243 524.5  C 243 522.82  244.32 521.5  246 521.5  C 247.68 521.5  249 522.82  249 524.5  C 249 526.18  247.68 527.5  246 527.5  " fill-rule="nonzero" fill="#797979" stroke="none" />
</svg>