<?xml version="1.0" encoding="utf-8"?>
<svg version="1.1" xmlns:xlink="http://www.w3.org/1999/xlink" width="12px" height="12px" viewBox="340 518.5  12 12" xmlns="http://www.w3.org/2000/svg">
  <path d="M 346 518.5  C 349.36 518.5  352 521.14  352 524.5  C 352 527.86  349.36 530.5  346 530.5  C 342.64 530.5  340 527.86  340 524.5  C 340 521.14  342.64 518.5  346 518.5  Z " fill-rule="nonzero" fill="#f0f0f0" stroke="none" />
  <path d="M 346 519  C 349.08 519  351.5 521.42  351.5 524.5  C 351.5 527.58  349.08 530  346 530  C 342.92 530  340.5 527.58  340.5 524.5  C 340.5 521.42  342.92 519  346 519  Z " stroke-width="1" stroke="#797979" fill="none" />
  <path d="M 346 527.5  C 344.32 527.5  343 526.18  343 524.5  C 343 522.82  344.32 521.5  346 521.5  C 347.68 521.5  349 522.82  349 524.5  C 349 526.18  347.68 527.5  346 527.5  " fill-rule="nonzero" fill="#797979" stroke="none" />
</svg>