<?xml version="1.0" encoding="utf-8"?>
<svg version="1.1" xmlns:xlink="http://www.w3.org/1999/xlink" width="12px" height="12px" viewBox="496 518.5  12 12" xmlns="http://www.w3.org/2000/svg">
  <path d="M 502 518.5  C 505.36 518.5  508 521.14  508 524.5  C 508 527.86  505.36 530.5  502 530.5  C 498.64 530.5  496 527.86  496 524.5  C 496 521.14  498.64 518.5  502 518.5  Z " fill-rule="nonzero" fill="#ffffff" stroke="none" />
  <path d="M 502 519  C 505.08 519  507.5 521.42  507.5 524.5  C 507.5 527.58  505.08 530  502 530  C 498.92 530  496.5 527.58  496.5 524.5  C 496.5 521.42  498.92 519  502 519  Z " stroke-width="1" stroke="#797979" fill="none" />
  <path d="M 502 527.5  C 500.32 527.5  499 526.18  499 524.5  C 499 522.82  500.32 521.5  502 521.5  C 503.68 521.5  505 522.82  505 524.5  C 505 526.18  503.68 527.5  502 527.5  " fill-rule="nonzero" fill="#797979" stroke="none" />
</svg>